<svg width="200px" height="80px" viewBox="0 0 715 294" version="1.1" xmlns="http://www.w3.org/2000/svg"
     xmlns:xlink="http://www.w3.org/1999/xlink">
    <defs>
        <rect id="path-kjw8_mgt4y-1" x="288" y="78" width="414" height="135" rx="67.5"></rect>
        <filter x="-5.3%" y="-17.8%" width="110.6%" height="137.8%" filterUnits="objectBoundingBox"
                id="filter-kjw8_mgt4y-2">
            <feOffset dx="0" dy="5" in="SourceAlpha" result="shadowOffsetOuter1"></feOffset>
            <feGaussianBlur stdDeviation="6.5" in="shadowOffsetOuter1" result="shadowBlurOuter1"></feGaussianBlur>
            <feComposite in="shadowBlurOuter1" in2="SourceAlpha" operator="out" result="shadowBlurOuter1"></feComposite>
            <feColorMatrix values="0 0 0 0 0.859516531   0 0 0 0 0.859516531   0 0 0 0 0.859516531  0 0 0 1 0"
                           type="matrix" in="shadowBlurOuter1" result="shadowMatrixOuter1"></feColorMatrix>
            <feOffset dx="0" dy="-5" in="SourceAlpha" result="shadowOffsetOuter2"></feOffset>
            <feGaussianBlur stdDeviation="5" in="shadowOffsetOuter2" result="shadowBlurOuter2"></feGaussianBlur>
            <feComposite in="shadowBlurOuter2" in2="SourceAlpha" operator="out" result="shadowBlurOuter2"></feComposite>
            <feColorMatrix values="0 0 0 0 1   0 0 0 0 1   0 0 0 0 1  0 0 0 1 0" type="matrix" in="shadowBlurOuter2"
                           result="shadowMatrixOuter2"></feColorMatrix>
            <feMerge>
                <feMergeNode in="shadowMatrixOuter1"></feMergeNode>
                <feMergeNode in="shadowMatrixOuter2"></feMergeNode>
            </feMerge>
        </filter>
        <filter x="-19.2%" y="-60.4%" width="138.4%" height="223.0%" filterUnits="objectBoundingBox"
                id="filter-kjw8_mgt4y-3">
            <feGaussianBlur stdDeviation="58.5" in="SourceAlpha" result="shadowBlurInner1"></feGaussianBlur>
            <feOffset dx="0" dy="16" in="shadowBlurInner1" result="shadowOffsetInner1"></feOffset>
            <feComposite in="shadowOffsetInner1" in2="SourceAlpha" operator="arithmetic" k2="-1" k3="1"
                         result="shadowInnerInner1"></feComposite>
            <feColorMatrix values="0 0 0 0 0   0 0 0 0 0   0 0 0 0 0  0 0 0 0.0776059878 0" type="matrix"
                           in="shadowInnerInner1"></feColorMatrix>
        </filter>
        <circle id="path-kjw8_mgt4y-4" cx="143.5" cy="145.5" r="130.5"></circle>
        <filter x="-8.4%" y="-9.2%" width="116.9%" height="119.5%" filterUnits="objectBoundingBox"
                id="filter-kjw8_mgt4y-5">
            <feOffset dx="0" dy="5" in="SourceAlpha" result="shadowOffsetOuter1"></feOffset>
            <feGaussianBlur stdDeviation="6.5" in="shadowOffsetOuter1" result="shadowBlurOuter1"></feGaussianBlur>
            <feColorMatrix values="0 0 0 0 0.859516531   0 0 0 0 0.859516531   0 0 0 0 0.859516531  0 0 0 1 0"
                           type="matrix" in="shadowBlurOuter1" result="shadowMatrixOuter1"></feColorMatrix>
            <feOffset dx="0" dy="-5" in="SourceAlpha" result="shadowOffsetOuter2"></feOffset>
            <feGaussianBlur stdDeviation="5" in="shadowOffsetOuter2" result="shadowBlurOuter2"></feGaussianBlur>
            <feColorMatrix values="0 0 0 0 1   0 0 0 0 1   0 0 0 0 1  0 0 0 1 0" type="matrix" in="shadowBlurOuter2"
                           result="shadowMatrixOuter2"></feColorMatrix>
            <feMerge>
                <feMergeNode in="shadowMatrixOuter1"></feMergeNode>
                <feMergeNode in="shadowMatrixOuter2"></feMergeNode>
            </feMerge>
        </filter>
        <filter x="-30.5%" y="-31.2%" width="160.9%" height="163.6%" filterUnits="objectBoundingBox"
                id="filter-kjw8_mgt4y-6">
            <feGaussianBlur stdDeviation="58.5" in="SourceAlpha" result="shadowBlurInner1"></feGaussianBlur>
            <feOffset dx="0" dy="16" in="shadowBlurInner1" result="shadowOffsetInner1"></feOffset>
            <feComposite in="shadowOffsetInner1" in2="SourceAlpha" operator="arithmetic" k2="-1" k3="1"
                         result="shadowInnerInner1"></feComposite>
            <feColorMatrix values="0 0 0 0 0   0 0 0 0 0   0 0 0 0 0  0 0 0 0.0776059878 0" type="matrix"
                           in="shadowInnerInner1"></feColorMatrix>
        </filter>
    </defs>
    <g id="Page-1" stroke="none" stroke-width="1" fill="none" fill-rule="evenodd">
        <g id="Rectangle-Copy-2">
            <use fill="black" fill-opacity="1" filter="url(#filter-kjw8_mgt4y-2)" xlink:href="#path-kjw8_mgt4y-1"></use>
            <use fill-opacity="0.15" fill="#000000" fill-rule="evenodd" xlink:href="#path-kjw8_mgt4y-1"></use>
            <use fill="black" fill-opacity="1" filter="url(#filter-kjw8_mgt4y-3)" xlink:href="#path-kjw8_mgt4y-1"></use>
        </g>
        <g id="Oval-Copy-2">
            <use fill="black" fill-opacity="1" filter="url(#filter-kjw8_mgt4y-5)" xlink:href="#path-kjw8_mgt4y-4"></use>
            <use fill="#FFFDFD" fill-rule="evenodd" xlink:href="#path-kjw8_mgt4y-4"></use>
            <use fill="black" fill-opacity="1" filter="url(#filter-kjw8_mgt4y-6)" xlink:href="#path-kjw8_mgt4y-4"></use>
        </g>
        <g>
            <g id="Group" transform="translate(64.9309, 78.9862)">
                <g id="color" fill="#FCEA2B" fill-rule="nonzero">
                    <path d="M58.4037749,133.197702 C54.3414268,133.19907 50.3085679,132.507958 46.478473,131.154058 L44.6320613,130.501099 C39.4556358,128.665022 33.9570066,127.91275 28.4776373,128.291 L27.3381775,128.367375 C25.3606604,128.500074 23.4165697,127.807354 21.9685418,126.454062 C20.520514,125.100771 19.6980349,123.207922 19.6968306,121.225958 C19.6834207,117.157916 22.9087614,113.817398 26.9747701,113.688122 L46.2107433,112.953194 C46.9677721,112.950676 47.1535323,112.745612 47.2161984,112.680149 C47.4646034,112.336927 47.5730326,111.912012 47.5194575,111.491731 C47.4846704,111.105584 47.2939339,110.750317 46.9912962,110.507975 C46.6886586,110.265633 46.300289,110.15717 45.9158769,110.207636 L7.12612387,110.207636 C3.18553417,110.19499 0,106.995638 0,103.055028 C-0.0353117135,100.478116 0.985861914,97.9988882 2.82650241,96.1950493 C4.64668312,94.4460293 7.08033846,93.480824 9.60451197,93.5068417 L27.2920172,94.0641223 C27.4684848,94.0531137 27.6308501,93.963982 27.7348762,93.8210114 C27.9803931,93.5457706 28.1113158,93.1870346 28.1008015,92.8183539 L28.0845754,92.5313208 C28.0845754,92.0968545 27.2212381,91.6542752 26.3713292,91.6542752 L12.6426985,91.6542752 C9.09781143,91.6494947 6.2257374,88.7761691 6.22250117,85.2312803 C6.21761286,80.8629096 9.65294211,77.2650677 14.0168765,77.0681822 L19.9455366,76.7920597 C21.6733458,76.7114979 23.2506902,75.7853159 24.1628903,74.3157222 C25.0750904,72.8461286 25.2051569,71.0215982 24.5106497,69.4374661 L24.109195,68.5167781 C21.2295795,61.5685064 20.3559271,53.9520095 21.5874443,46.5321692 C27.525896,17.0290278 52.4099308,-2.0651074 82.0386841,0.178562593 C113.306548,2.50895799 137.04245,27.2447203 134.94985,55.3135355 C134.633,59.5829519 133.724516,63.7876449 132.250452,67.8070286 L130.81081,72.3391301 C130.624831,72.9218596 130.702769,73.5567614 131.024169,74.0772074 C131.345568,74.5976534 131.878337,74.9516754 132.482652,75.0463614 L140.129594,76.2403743 C144.140992,76.8485689 147.100268,80.3054231 147.082733,84.3626275 C147.082916,84.7483378 147.048178,85.1332726 146.978943,85.5127182 C152.588461,85.795348 156.993487,90.4225933 157,96.0392233 C157.021602,101.985531 152.49144,106.960509 146.569095,107.49425 L139.315495,108.174345 C135.113512,108.567423 130.882353,108.529927 126.687997,108.062441 L122.863407,107.636088 C121.28924,107.460896 119.71494,107.964231 118.534387,109.02016 C117.353835,110.07609 116.678711,111.584724 116.677927,113.168609 C116.680207,114.170816 117.454324,115.002004 118.45384,115.075448 L120.571059,115.225679 C125.080995,115.555887 128.575561,119.304053 128.589521,123.826041 C128.585512,127.969225 125.22788,131.326981 121.084697,131.331145 L112.708422,131.331145 C110.477495,131.330663 108.252623,131.098997 106.069453,130.63986 L101.640862,129.708261 C95.4596716,128.405937 89.0855651,128.305732 82.866492,129.413115 L64.6356942,132.65049 C62.5784421,133.015201 60.4931049,133.197702 58.4037749,133.197702 Z"
                          id="Path"></path>
                </g>
                <g id="line" transform="translate(2.7873, 2.6617)">
                    <path d="M109.921989,126.010299 L118.297704,126.010299 C120.973607,126.010299 123.142856,123.841051 123.142856,121.165147 L123.142856,121.165147 C123.142796,118.031927 120.719604,115.432316 117.594109,115.212428 L115.481087,115.063875 C113.088026,114.895679 111.232633,112.90528 111.232661,110.506316 L111.232661,110.506316 C111.232522,108.165858 112.229484,105.93618 113.973841,104.375743 C115.718198,102.815306 118.044731,102.071909 120.370721,102.331748 L124.195311,102.75866 C128.208899,103.2066 132.257811,103.242316 136.278677,102.865249 L143.532277,102.184874 C148.078275,101.75813 151.553023,97.9423544 151.553537,93.3763711 L151.553537,93.3763711 C151.553537,91.2866441 150.723523,89.2824816 149.245889,87.8047952 C147.768255,86.3271089 145.764122,85.4969489 143.674395,85.4969489 L130.231678,85.4969489"
                          id="Path" stroke="#000000" stroke-width="2" stroke-linecap="round"></path>
                    <path d="M134.208457,85.4838003 L137.85596,85.4838003 C139.944519,85.4836458 141.637747,83.7905726 141.637747,81.7020133 L141.637747,81.7020133 C141.637747,78.9609351 139.641236,76.6282847 136.933034,76.2050219 L129.287211,75.0104494 C127.916047,74.7962533 126.70694,73.993594 125.977226,72.813133 C125.247512,71.6326721 125.070057,70.1922862 125.491436,68.8700114 L126.970523,64.2288038 C128.358748,60.4405306 129.214306,56.4778658 129.512697,52.4542922 C131.498988,25.8021784 108.909539,2.39247537 79.0569786,0.16726949 C49.2044178,-2.05793639 26.681552,18.1955216 21.4052906,44.3955444 C20.29218,51.2803124 21.1055055,58.3388152 23.7552691,64.7900011 L24.1572833,65.7064927 C25.2035944,68.0927908 25.0076778,70.8412943 23.6334692,73.0550549 C22.2592605,75.2688155 19.8830303,76.6638728 17.280239,76.784963 L11.3521383,77.0608057 C8.40812824,77.1977314 6.09187174,79.6248725 6.0926625,82.5720649 L6.0926625,82.5720649 C6.09343479,84.6496807 7.77780988,86.3335549 9.85542578,86.3337092 L23.5837767,86.3337092 C25.7627115,86.1188934 27.7102079,87.693913 27.9558558,89.8695876 L27.9558558,89.8695876 C28.074739,90.898077 27.7646854,91.9301185 27.0986714,92.7228032 C26.4326575,93.5154879 25.4695104,93.9988001 24.4359236,94.0589839 L6.88997665,93.5022628 C5.07559486,93.4656535 3.32282089,94.1607733 2.02669079,95.4309577 C0.730560679,96.701142 0,98.4395036 0,100.254255 L0,100.394134 C-0.00626238365,101.583061 0.461359153,102.725516 1.29949282,103.568795 C2.13762648,104.412074 3.27719829,104.886679 4.46614163,104.887629 L43.128884,104.887629 C45.3180805,104.751966 47.2108617,106.398588 47.3795475,108.585488 L47.3795475,108.585488 C47.5635373,109.699365 47.2366245,110.836913 46.4893291,111.683154 C45.7420338,112.529394 44.653664,112.994517 43.5255827,112.949734 L24.2814965,113.684942 C21.6526439,113.777019 19.5691249,115.934879 19.56923,118.565344 L19.56923,118.565344 C19.5692474,119.811458 20.0860516,121.001762 20.9964836,121.852594 C21.9069155,122.703427 23.1294326,123.138583 24.372698,123.054362 L25.5107591,122.977148 C31.3520644,122.58125 37.2126232,123.3842 42.7321852,125.336639 L44.5785969,125.989317 C49.9671166,127.895367 55.7576561,128.37229 61.3854197,127.373567 L79.6159378,124.135912 C86.1694915,122.972693 92.88542,123.078397 99.3991203,124.447284"
                          id="Path" stroke="#000000" stroke-width="2" stroke-linecap="round"></path>
                    <path d="M67.6341246,37.6656534 C67.6341246,42.3008581 63.8765487,46.0584339 59.241344,46.0584339 C54.6061393,46.0584339 50.8485635,42.3008581 50.8485635,37.6656534 C50.8485635,33.0304487 54.6061393,29.2728729 59.241344,29.2728729 C63.8758451,29.2745712 67.6324262,33.0311524 67.6341246,37.6656534"
                          id="Path" fill="#000000" fill-rule="nonzero"></path>
                    <path d="M101.205247,52.2002707 C101.205247,56.8354754 97.4476709,60.5930513 92.8124662,60.5930513 C88.1772615,60.5930513 84.4196856,56.8354754 84.4196856,52.2002707 C84.4196856,47.565066 88.1772615,43.8074902 92.8124662,43.8074902 C97.4469672,43.8091886 101.203548,47.5657697 101.205247,52.2002707"
                          id="Path" fill="#000000" fill-rule="nonzero"></path>
                    <path d="M64.5178852,72.3664438 C72.1514134,80.878274 83.9147533,84.3881119 94.9643751,81.4507895"
                          id="Path" stroke="#000000" stroke-width="1.928" stroke-linecap="round"></path>
                </g>
            </g>
            <animateTransform id="animate"
                              attributeName="transform"
                              attributeType="XML"
                              type="rotate"
                              from="0 143.5 145.5"
                              to="360 143.5 145.5"
                              dur="2s"
                              repeatCount="indefinite"/>


        </g>
    </g>
</svg>