<svg id="emoji" width="160" height="80" viewBox="0 0 550 290" version="1.1" xmlns="http://www.w3.org/2000/svg"
     xmlns:xlink="http://www.w3.org/1999/xlink">
    <defs>
        <rect id="my-rect" x="290" y="107" width="228" height="77" rx="38.5"></rect>
        <filter x="-5.3%" y="-17.8%" width="110.6%" height="137.8%" filterUnits="objectBoundingBox"
                id="filter-fx7r_ueghu-2">
            <feOffset dx="0" dy="5" in="SourceAlpha" result="shadowOffsetOuter1"></feOffset>
            <feGaussianBlur stdDeviation="6.5" in="shadowOffsetOuter1" result="shadowBlurOuter1"></feGaussianBlur>
            <feComposite in="shadowBlurOuter1" in2="SourceAlpha" operator="out" result="shadowBlurOuter1"></feComposite>
            <feColorMatrix values="0 0 0 0 0.859516531   0 0 0 0 0.859516531   0 0 0 0 0.859516531  0 0 0 1 0"
                           type="matrix" in="shadowBlurOuter1" result="shadowMatrixOuter1"></feColorMatrix>
            <feOffset dx="0" dy="-5" in="SourceAlpha" result="shadowOffsetOuter2"></feOffset>
            <feGaussianBlur stdDeviation="5" in="shadowOffsetOuter2" result="shadowBlurOuter2"></feGaussianBlur>
            <feComposite in="shadowBlurOuter2" in2="SourceAlpha" operator="out" result="shadowBlurOuter2"></feComposite>
            <feColorMatrix values="0 0 0 0 1   0 0 0 0 1   0 0 0 0 1  0 0 0 1 0" type="matrix" in="shadowBlurOuter2"
                           result="shadowMatrixOuter2"></feColorMatrix>
            <feMerge>
                <feMergeNode in="shadowMatrixOuter1"></feMergeNode>
                <feMergeNode in="shadowMatrixOuter2"></feMergeNode>
            </feMerge>
        </filter>
        <filter x="-19.2%" y="-60.4%" width="138.4%" height="223.0%" filterUnits="objectBoundingBox"
                id="filter-fx7r_ueghu-3">
            <feGaussianBlur stdDeviation="58.5" in="SourceAlpha" result="shadowBlurInner1"></feGaussianBlur>
            <feOffset dx="0" dy="16" in="shadowBlurInner1" result="shadowOffsetInner1"></feOffset>
            <feComposite in="shadowOffsetInner1" in2="SourceAlpha" operator="arithmetic" k2="-1" k3="1"
                         result="shadowInnerInner1"></feComposite>
            <feColorMatrix values="0 0 0 0 0   0 0 0 0 0   0 0 0 0 0  0 0 0 0.0776059878 0" type="matrix"
                           in="shadowInnerInner1"></feColorMatrix>
        </filter>
        <circle id="path-fx7r_ueghu-4" cx="143.5" cy="145.5" r="130.5"></circle>
        <filter x="-8.4%" y="-9.2%" width="116.9%" height="119.5%" filterUnits="objectBoundingBox"
                id="filter-fx7r_ueghu-5">
            <feOffset dx="0" dy="5" in="SourceAlpha" result="shadowOffsetOuter1"></feOffset>
            <feGaussianBlur stdDeviation="6.5" in="shadowOffsetOuter1" result="shadowBlurOuter1"></feGaussianBlur>
            <feColorMatrix values="0 0 0 0 0.859516531   0 0 0 0 0.859516531   0 0 0 0 0.859516531  0 0 0 1 0"
                           type="matrix" in="shadowBlurOuter1" result="shadowMatrixOuter1"></feColorMatrix>
            <feOffset dx="0" dy="-5" in="SourceAlpha" result="shadowOffsetOuter2"></feOffset>
            <feGaussianBlur stdDeviation="5" in="shadowOffsetOuter2" result="shadowBlurOuter2"></feGaussianBlur>
            <feColorMatrix values="0 0 0 0 1   0 0 0 0 1   0 0 0 0 1  0 0 0 1 0" type="matrix" in="shadowBlurOuter2"
                           result="shadowMatrixOuter2"></feColorMatrix>
            <feMerge>
                <feMergeNode in="shadowMatrixOuter1"></feMergeNode>
                <feMergeNode in="shadowMatrixOuter2"></feMergeNode>
            </feMerge>
        </filter>
        <filter x="-30.5%" y="-31.2%" width="160.9%" height="163.6%" filterUnits="objectBoundingBox"
                id="filter-fx7r_ueghu-6">
            <feGaussianBlur stdDeviation="58.5" in="SourceAlpha" result="shadowBlurInner1"></feGaussianBlur>
            <feOffset dx="0" dy="16" in="shadowBlurInner1" result="shadowOffsetInner1"></feOffset>
            <feComposite in="shadowOffsetInner1" in2="SourceAlpha" operator="arithmetic" k2="-1" k3="1"
                         result="shadowInnerInner1"></feComposite>
            <feColorMatrix values="0 0 0 0 0   0 0 0 0 0   0 0 0 0 0  0 0 0 0.0776059878 0" type="matrix"
                           in="shadowInnerInner1"></feColorMatrix>
        </filter>
    </defs>
    <g id="Page-1" stroke="none" stroke-width="1" fill="none" fill-rule="evenodd">
        <g id="Rectangle-Copy-2">
            <use fill="black" fill-opacity="1" filter="url(#filter-fx7r_ueghu-2)" xlink:href="#my-rect"></use>
            <use fill-opacity="0.15" fill="#000000" fill-rule="evenodd" xlink:href="#my-rect"></use>
            <use fill="black" fill-opacity="1" filter="url(#filter-fx7r_ueghu-3)" xlink:href="#my-rect"></use>
        </g>
        <g id="Oval-Copy-2">
            <use fill="black" fill-opacity="1" filter="url(#filter-fx7r_ueghu-5)" xlink:href="#path-fx7r_ueghu-4"></use>
            <use fill="#FFFFFF" fill-rule="evenodd" xlink:href="#path-fx7r_ueghu-4"></use>
            <use fill="black" fill-opacity="1" filter="url(#filter-fx7r_ueghu-6)" xlink:href="#path-fx7r_ueghu-4"></use>
        </g>
        <g>
            <g id="Group" transform="translate(64.8921, 68.2)">
                <g id="color" transform="translate(2.1807, 0)" fill="#FCEA2B" fill-rule="nonzero">
                    <circle id="Oval" cx="76.8458152" cy="66.9147683" r="66.9147683"></circle>
                    <g id="Group" transform="translate(0, 104.3083)">
                        <path d="M55.7592285,35.9877745 L41.4203496,50.607808 C28.8471209,40.8826742 12.0115901,38.2510682 1.35583497,25.9786748 C-0.0828325441,18.2862879 -2.33291192,-2.16488956 6.56843919,5.34193528 C20.5024557,-3.96427829 18.8773827,9.21905568 34.9650425,13.214261 L35.5273515,13.214261 C33.7442698,5.42065854 30.7224213,5.83395564 36.6519695,0 C46.7566618,11.0802984 46.6104615,26.9514693 55.7704747,35.9877745 L55.7592285,35.9877745 Z"
                              id="Path"></path>
                        <path d="M116.207444,0.843463466 C120.680612,3.24480395 117.573854,11.0381252 117.613216,14.0577244 C122.392842,12.651952 131.389786,7.3100167 137.012876,2.81154489 C141.49729,2.94326576 159.38715,6.41313389 153.319836,12.3707975 C153.319836,12.3707975 156.69369,13.4954155 153.319836,20.8054322 C151.351755,22.2112046 152.757527,27.5531399 150.508291,30.3646848 C138.879742,41.9904229 119.412605,39.1282702 112.83359,50.8889624 L98.2135563,36.268929 C108.588157,26.8221382 103.718561,8.26875351 116.207444,0.843463466 L116.207444,0.843463466 Z"
                              id="Path"></path>
                    </g>
                </g>
                <g id="line" transform="translate(0, 2.2492)" stroke="#000000" stroke-linecap="round" stroke-width="2">
                    <path d="M135.819695,95.5925261 C140.880476,86.0332735 143.692021,75.349403 143.692021,64.6655324 C143.692021,28.9589123 114.733109,0 79.0264885,0 C43.3198684,0 14.3609561,28.9589123 14.3609561,64.6655324 C14.3609561,75.0682485 16.8913465,85.4709645 21.9521273,94.7490627 C21.9521273,95.0302172 21.9521273,95.0302172 22.2332818,95.3113717"
                          id="Path" stroke-linejoin="round"></path>
                    <path d="M61.0326012,126.800674 C66.9368455,128.487601 72.8410897,129.331065 79.0264885,129.331065 C84.9307327,129.331065 90.834977,128.487601 96.4580668,127.081829"
                          id="Path" stroke-linejoin="round"></path>
                    <path d="M106.579628,90.5317453 C90.5538225,103.746006 67.4991544,103.746006 51.4733486,90.5317453"
                          id="Path" stroke-linejoin="round"></path>
                    <path d="M66.9368455,57.3555157 C64.1253006,50.607808 56.2529749,47.5151086 49.5052672,50.607808 C46.4125678,52.0135804 44.1633319,54.2628163 42.7575594,57.3555157"
                          id="Path"></path>
                    <path d="M115.295418,57.3555157 C112.483873,50.607808 104.611547,47.5151086 97.8638392,50.607808 C94.7711398,52.0135804 92.5219039,54.2628163 91.1161315,57.3555157"
                          id="Path"></path>
                    <path d="M57.3775929,136.922236 C54.8570429,134.773372 53.0084521,133.081666 52.3168121,130.174528 C51.6347313,121.78769 47.961729,113.954726 44.4444864,107.401015 C43.6010229,105.995242 41.914096,101.777925 40.227169,101.215616 C37.6967786,100.372152 36.0098517,101.215616 35.4475427,104.308315 C34.8852338,107.401015 37.1344697,113.586413 37.6967786,115.27334 C31.0699674,111.750475 24.845207,107.662488 19.7028914,103.746006 C16.3290375,101.777925 13.5174926,102.621388 12.1117202,104.870624 C11.5494112,105.714088 11.5494112,106.276397 11.2682567,106.838706 C7.05093939,103.746006 3.95824001,104.870624 2.55246757,106.838706 C1.14669512,108.525633 1.14669512,111.056023 2.27131308,112.74295 C1.7090041,113.024104 1.14669512,113.586413 0.865540636,114.148722 C-0.821386296,116.960267 0.02207717,120.615276 2.83362206,122.302203 C3.39593103,122.583357 4.2393945,123.426821 5.36401245,123.989129 C5.08285797,124.270284 4.80170348,124.270284 4.80170348,124.551438 C3.39593103,126.238365 3.39593103,129.04991 4.80170348,130.736837 C9.3001753,138.609163 30.1056075,144.513407 37.1344697,146.200334 L42.1952505,151.261115"
                          id="Path" stroke-linejoin="round"></path>
                    <path d="M114.451954,151.261115 L119.512735,146.200334 C126.541597,144.513407 147.347029,138.328008 151.845501,130.736837 C153.251273,129.04991 153.251273,126.238365 151.564347,124.832593 C151.283192,124.551438 151.283192,124.270284 151.002038,124.270284 C152.40781,123.426821 153.251273,122.583357 153.532428,122.583357 C156.343973,120.89643 157.187436,117.241422 155.500509,114.429877 C155.219355,113.867568 154.657046,113.305259 154.094737,113.024104 C155.219355,111.337178 155.219355,108.806787 153.813582,107.11986 C152.40781,105.432933 149.315111,104.027161 145.097793,107.11986 C145.097793,106.276397 144.816639,105.432933 144.25433,105.151779 C142.848557,103.183697 140.318167,102.059079 136.663159,104.027161 C136.663159,104.027161 136.382004,104.027161 136.382004,104.308315 C131.040069,108.806787 124.85467,112.461795 118.669271,115.554495 C120.082354,111.938848 123.420782,99.2081729 116.982344,101.215616 C115.295418,101.777925 113.608491,105.995242 112.765027,107.401015 C107.878562,114.460804 106.416559,122.071656 104.892701,130.174528 C104.979916,133.202562 101.867479,134.886677 99.8319206,136.922236"
                          id="Path" stroke-linejoin="round"></path>
                </g>
            </g>
            <animateTransform id="animate"
                              attributeName="transform"
                              attributeType="XML"
                              type="rotate"
                              from="0 143.5 145.5"
                              to="360 143.5 145.5"
                              dur="2s"
                              repeatCount="indefinite"/>

        </g>
        <text id="my-text"></text>
    </g>
</svg>
