<svg id="emoji" width="160" height="80" viewBox="0 0 550 290" version="1.1" xmlns="http://www.w3.org/2000/svg"
     xmlns:xlink="http://www.w3.org/1999/xlink">
    <defs>
        <rect id="my-rect" x="290" y="107" width="228" height="77" rx="38.5"></rect>
        <filter x="-5.3%" y="-17.8%" width="110.6%" height="137.8%" filterUnits="objectBoundingBox"
                id="filter-29hcnhn_zt-2">
            <feOffset dx="0" dy="5" in="SourceAlpha" result="shadowOffsetOuter1"></feOffset>
            <feGaussianBlur stdDeviation="6.5" in="shadowOffsetOuter1" result="shadowBlurOuter1"></feGaussianBlur>
            <feComposite in="shadowBlurOuter1" in2="SourceAlpha" operator="out" result="shadowBlurOuter1"></feComposite>
            <feColorMatrix values="0 0 0 0 0.859516531   0 0 0 0 0.859516531   0 0 0 0 0.859516531  0 0 0 1 0"
                           type="matrix" in="shadowBlurOuter1" result="shadowMatrixOuter1"></feColorMatrix>
            <feOffset dx="0" dy="-5" in="SourceAlpha" result="shadowOffsetOuter2"></feOffset>
            <feGaussianBlur stdDeviation="5" in="shadowOffsetOuter2" result="shadowBlurOuter2"></feGaussianBlur>
            <feComposite in="shadowBlurOuter2" in2="SourceAlpha" operator="out" result="shadowBlurOuter2"></feComposite>
            <feColorMatrix values="0 0 0 0 1   0 0 0 0 1   0 0 0 0 1  0 0 0 1 0" type="matrix" in="shadowBlurOuter2"
                           result="shadowMatrixOuter2"></feColorMatrix>
            <feMerge>
                <feMergeNode in="shadowMatrixOuter1"></feMergeNode>
                <feMergeNode in="shadowMatrixOuter2"></feMergeNode>
            </feMerge>
        </filter>
        <filter x="-19.2%" y="-60.4%" width="138.4%" height="223.0%" filterUnits="objectBoundingBox"
                id="filter-29hcnhn_zt-3">
            <feGaussianBlur stdDeviation="58.5" in="SourceAlpha" result="shadowBlurInner1"></feGaussianBlur>
            <feOffset dx="0" dy="16" in="shadowBlurInner1" result="shadowOffsetInner1"></feOffset>
            <feComposite in="shadowOffsetInner1" in2="SourceAlpha" operator="arithmetic" k2="-1" k3="1"
                         result="shadowInnerInner1"></feComposite>
            <feColorMatrix values="0 0 0 0 0   0 0 0 0 0   0 0 0 0 0  0 0 0 0.0776059878 0" type="matrix"
                           in="shadowInnerInner1"></feColorMatrix>
        </filter>
        <circle id="path-29hcnhn_zt-4" cx="143.5" cy="145.5" r="130.5"></circle>
        <filter x="-8.4%" y="-9.2%" width="116.9%" height="119.5%" filterUnits="objectBoundingBox"
                id="filter-29hcnhn_zt-5">
            <feOffset dx="0" dy="5" in="SourceAlpha" result="shadowOffsetOuter1"></feOffset>
            <feGaussianBlur stdDeviation="6.5" in="shadowOffsetOuter1" result="shadowBlurOuter1"></feGaussianBlur>
            <feColorMatrix values="0 0 0 0 0.859516531   0 0 0 0 0.859516531   0 0 0 0 0.859516531  0 0 0 1 0"
                           type="matrix" in="shadowBlurOuter1" result="shadowMatrixOuter1"></feColorMatrix>
            <feOffset dx="0" dy="-5" in="SourceAlpha" result="shadowOffsetOuter2"></feOffset>
            <feGaussianBlur stdDeviation="5" in="shadowOffsetOuter2" result="shadowBlurOuter2"></feGaussianBlur>
            <feColorMatrix values="0 0 0 0 1   0 0 0 0 1   0 0 0 0 1  0 0 0 1 0" type="matrix" in="shadowBlurOuter2"
                           result="shadowMatrixOuter2"></feColorMatrix>
            <feMerge>
                <feMergeNode in="shadowMatrixOuter1"></feMergeNode>
                <feMergeNode in="shadowMatrixOuter2"></feMergeNode>
            </feMerge>
        </filter>
        <filter x="-30.5%" y="-31.2%" width="160.9%" height="163.6%" filterUnits="objectBoundingBox"
                id="filter-29hcnhn_zt-6">
            <feGaussianBlur stdDeviation="58.5" in="SourceAlpha" result="shadowBlurInner1"></feGaussianBlur>
            <feOffset dx="0" dy="16" in="shadowBlurInner1" result="shadowOffsetInner1"></feOffset>
            <feComposite in="shadowOffsetInner1" in2="SourceAlpha" operator="arithmetic" k2="-1" k3="1"
                         result="shadowInnerInner1"></feComposite>
            <feColorMatrix values="0 0 0 0 0   0 0 0 0 0   0 0 0 0 0  0 0 0 0.0776059878 0" type="matrix"
                           in="shadowInnerInner1"></feColorMatrix>
        </filter>
    </defs>
    <g id="Page-1" stroke="none" stroke-width="1" fill="none" fill-rule="evenodd">
        <g id="Rectangle-Copy-2">
            <use fill="black" fill-opacity="1" filter="url(#filter-29hcnhn_zt-2)" xlink:href="#my-rect"></use>
            <use fill-opacity="0.15" fill="#000000" fill-rule="evenodd" xlink:href="#my-rect"></use>
            <use fill="black" fill-opacity="1" filter="url(#filter-29hcnhn_zt-3)" xlink:href="#my-rect"></use>
        </g>
        <g id="Oval-Copy-2">
            <use fill="black" fill-opacity="1" filter="url(#filter-29hcnhn_zt-5)" xlink:href="#path-29hcnhn_zt-4"></use>
            <use fill="#FFFFFF" fill-rule="evenodd" xlink:href="#path-29hcnhn_zt-4"></use>
            <use fill="black" fill-opacity="1" filter="url(#filter-29hcnhn_zt-6)" xlink:href="#path-29hcnhn_zt-4"></use>
        </g>
        <g>
            <g id="Group" transform="translate(64.9964, 55.9532)">
                <g id="color" transform="translate(0, 0)" fill-rule="nonzero">
                    <path d="M78.5024543,156.998541 C60.178529,156.99051 42.4332163,150.580681 28.3338956,138.877029 L28.3338956,138.877029 C-0.991759335,114.509928 -8.56561932,72.5931679 10.3784261,39.5043051 C29.3224715,6.4154424 69.3047846,-8.27444308 105.165127,4.67876156 C141.02547,17.6319662 162.391101,54.4814969 155.816966,92.0385261 C149.242831,129.595555 116.630524,156.996568 78.5024543,156.998541 L78.5024543,156.998541 Z"
                          id="Path" fill="#FCEA2B"></path>
                    <circle id="Oval" fill="#FFA7C0" cx="42.892916" cy="89.4956657" r="16.9353225"></circle>
                    <circle id="Oval" fill="#FFA7C0" cx="114.111993" cy="89.4956657" r="16.9353225"></circle>
                    <path d="M75.7552842,179.824581 C75.6784289,179.824581 75.5986301,179.82131 75.5188314,179.815097 L43.7955576,177.525788 C42.8594218,177.458475 41.9973966,176.991981 41.4290117,176.245108 C40.8606269,175.498234 40.6407379,174.543063 40.8253435,173.622844 C42.5786267,164.858064 44.0735451,158.177535 44.8430797,154.728528 C44.3417212,153.703245 43.843306,152.639698 43.3419475,151.57615 C42.7065009,150.225131 42.0710543,148.874112 41.4352806,147.599949 C40.755029,146.239445 39.3369659,143.403319 37.1781481,119.286763 C36.5135946,112.647769 36.6830034,107.827466 39.589444,104.438963 C41.1413128,102.484073 43.4983109,101.341439 45.9942748,101.334007 C49.2197788,101.265284 52.1968649,103.058995 53.6435083,105.942711 C56.0710721,100.150573 58.9201824,94.5442802 62.1679117,89.1689487 C63.784657,85.6110659 67.1347294,83.1494824 71.0131454,82.6696021 C72.6790228,82.6174666 74.3225947,83.063374 75.7336993,83.9503067 C79.7962406,78.8081929 84.4271845,78.4759162 87.7296754,80.1464572 C91.0279699,81.9930232 93.1586618,85.3923186 93.382959,89.1656783 C94.2887539,89.2444013 95.17612,89.4675401 96.0114121,89.8266343 C99.1122376,91.0328134 101.095558,94.0854129 100.937677,97.4088238 C100.900538,100.233336 100.241746,103.015002 99.0081169,105.556145 C99.7922872,106.263489 100.439699,107.109004 100.918054,108.05051 C102.770591,111.943074 102.624353,116.491577 100.525601,120.257103 L97.7437645,125.514009 C97.0409468,127.66367 96.5140789,129.822488 96.003236,131.914588 L95.6071857,133.524299 C94.165544,141.027556 91.5221696,148.248906 87.7790591,154.90971 C86.5018126,157.452527 84.6733797,159.678377 82.426983,161.425082 C82.2065554,161.642239 81.9926685,161.840428 81.7944798,162.028805 C81.4659426,162.313094 81.1635269,162.626236 80.8908571,162.964478 L80.6619263,164.379271 C79.8994074,168.474279 79.3514064,172.606338 79.0201651,176.758543 C78.9122408,178.481956 77.4830545,179.824581 75.7562654,179.824581 L75.7552842,179.824581 Z"
                          id="Path" fill="#FCEA2B"></path>
                </g>
                <g id="skin" transform="translate(40.1284, 82.5151)" stroke="#000000" stroke-linecap="round"
                   stroke-linejoin="round" stroke-width="2">
                    <path d="M3.90362513,91.7500679 C5.86588949,81.9387461 7.50110979,74.7437768 8.15519791,71.8003803 C6.84702167,69.1840278 5.53884543,66.2406313 4.23066919,63.6242788 C3.57658107,62.3161025 2.26840484,58.3915738 0.306140479,36.4796218 C-0.34794764,29.9387407 -0.0209035801,26.341256 1.94136078,24.0519476 C2.88794891,22.8410429 4.32921288,22.1204109 5.86588949,22.0896832 C10.1174623,22.0896832 11.4256385,26.0142119 12.4067707,29.9387407 L12.7338147,30.9198728 L13.3879029,32.8821372 C16.3334665,24.3275608 20.1700587,16.1062919 24.8344449,8.35383273 C30.721238,-1.45748906 36.280987,6.39156837 36.280987,6.39156837 C43.4759563,-7.01723807 52.63319,3.77521589 49.3627494,10.6431411 C50.9830029,9.80175084 52.8830453,9.68299819 54.5954544,10.3160971 C56.4647703,11.0436278 57.6530516,12.8920654 57.5388509,14.8947139 C57.4439551,18.1641437 56.4232935,21.3395353 54.5954544,24.0519476 C55.9675627,24.6654263 57.1117721,25.6952148 57.865895,26.9953441 C59.2331332,29.9232861 59.111478,33.329631 57.5388509,36.1525778 L54.5954544,41.7123268 C53.6143222,44.6557233 52.9602341,47.5991199 52.3061459,50.2154723 C50.9307692,57.4453275 48.390363,64.4038316 44.7841326,70.8192481 C43.7152133,73.0060211 42.1467415,74.9105941 40.2055157,76.3789971 C38.8973395,77.6871733 37.9162073,78.3412615 37.5891633,79.6494377 C36.6863733,84.4088747 36.0314028,89.2119913 35.6268989,94.0393763"
                          id="Path"></path>
                </g>
                <g id="line" transform="translate(3.6309, 3.3253)" stroke="#000000" stroke-linecap="round"
                   stroke-width="2">
                    <path d="M27.1231347,133.036752 C0.673709819,111.040728 -7.47956392,73.9023383 7.32370476,42.8497959 C22.1269734,11.7972535 56.1127588,-5.25273825 89.8548695,1.44555401 C123.59698,8.14384626 148.493019,36.8827235 150.312472,71.2351142 C152.131925,105.587505 130.41093,136.795424 97.5651547,147.020502"
                          id="Path" stroke-linejoin="round"></path>
                    <path d="M60.5974024,61.3715869 C59.0103519,57.5897122 55.9526886,54.6164685 52.1278739,53.135895 C48.3030592,51.6553216 44.0404309,51.7949041 40.3206707,53.5225294 C36.8151704,55.0657733 34.0148571,57.8660866 32.4716133,61.3715869"
                          id="Path"></path>
                    <path d="M116.848981,61.3715869 C115.26193,57.5897122 112.204267,54.6164685 108.379452,53.135895 C104.554637,51.6553216 100.292009,51.7949041 96.5722489,53.5225294 C93.0667486,55.0657733 90.2664354,57.8660866 88.7231915,61.3715869"
                          id="Path"></path>
                    <path d="M40.4011235,170.93985 C42.3633879,161.128528 43.9986082,153.933559 44.6526963,150.990162 C43.3445201,148.37381 42.0363438,145.430413 40.7281676,142.814061 C40.0740795,141.505885 38.7659033,137.581356 36.8036389,115.669404 C36.1495508,109.128523 36.4765948,105.531038 38.4388592,103.24173 C39.3854473,102.030825 40.8267113,101.310193 42.3633879,101.279465 C46.6149607,101.279465 47.9231369,105.203994 48.9042691,109.128523 L49.2313132,110.109655 L49.8854013,112.071919 C52.8309649,103.517343 56.6675571,95.2960739 61.3319434,87.5436148 C67.2187364,77.732293 72.7784854,85.5813504 72.7784854,85.5813504 C79.9734547,72.172544 89.1306884,82.9649979 85.8602478,89.8329232 C87.4805013,88.9915329 89.3805437,88.8727802 91.0929528,89.5058791 C92.9622687,90.2334098 94.15055,92.0818474 94.0363493,94.084496 C93.9414535,97.3539258 92.9207919,100.529317 91.0929528,103.24173 C92.4650611,103.855208 93.6092705,104.884997 94.3633934,106.185126 C95.7306316,109.113068 95.6089764,112.519413 94.0363493,115.34236 L91.0929528,120.902109 C90.1118206,123.845505 89.4577325,126.788902 88.8036444,129.405254 C87.4282676,136.63511 84.8878614,143.593614 81.281631,150.00903 C80.2127117,152.195803 78.6442399,154.100376 76.7030142,155.568779 C75.3948379,156.876955 74.4137057,157.531044 74.0866617,158.83922 C73.1838717,163.598657 72.5289013,168.401773 72.1243973,173.229158"
                          id="Path" stroke-linejoin="round"></path>
                </g>
            </g>
            <animateTransform id="animate"
                              attributeName="transform"
                              attributeType="XML"
                              type="rotate"
                              from="0 143.5 145.5"
                              to="360 143.5 145.5"
                              dur="2s"
                              repeatCount="indefinite"/>

        </g>
        <text id="my-text"></text>
    </g>
</svg>
