<svg id="emoji" width="200px" height="80px" viewBox="0 0 715 294" version="1.1" xmlns="http://www.w3.org/2000/svg"
     xmlns:xlink="http://www.w3.org/1999/xlink">
    <defs>
        <rect id="path-5ryfr2l9_2-1" x="288" y="78" width="414" height="135" rx="67.5"></rect>
        <filter x="-5.3%" y="-17.8%" width="110.6%" height="137.8%" filterUnits="objectBoundingBox"
                id="filter-5ryfr2l9_2-2">
            <feOffset dx="0" dy="5" in="SourceAlpha" result="shadowOffsetOuter1"></feOffset>
            <feGaussianBlur stdDeviation="6.5" in="shadowOffsetOuter1" result="shadowBlurOuter1"></feGaussianBlur>
            <feComposite in="shadowBlurOuter1" in2="SourceAlpha" operator="out" result="shadowBlurOuter1"></feComposite>
            <feColorMatrix values="0 0 0 0 0.859516531   0 0 0 0 0.859516531   0 0 0 0 0.859516531  0 0 0 1 0"
                           type="matrix" in="shadowBlurOuter1" result="shadowMatrixOuter1"></feColorMatrix>
            <feOffset dx="0" dy="-5" in="SourceAlpha" result="shadowOffsetOuter2"></feOffset>
            <feGaussianBlur stdDeviation="5" in="shadowOffsetOuter2" result="shadowBlurOuter2"></feGaussianBlur>
            <feComposite in="shadowBlurOuter2" in2="SourceAlpha" operator="out" result="shadowBlurOuter2"></feComposite>
            <feColorMatrix values="0 0 0 0 1   0 0 0 0 1   0 0 0 0 1  0 0 0 1 0" type="matrix" in="shadowBlurOuter2"
                           result="shadowMatrixOuter2"></feColorMatrix>
            <feMerge>
                <feMergeNode in="shadowMatrixOuter1"></feMergeNode>
                <feMergeNode in="shadowMatrixOuter2"></feMergeNode>
            </feMerge>
        </filter>
        <filter x="-19.2%" y="-60.4%" width="138.4%" height="223.0%" filterUnits="objectBoundingBox"
                id="filter-5ryfr2l9_2-3">
            <feGaussianBlur stdDeviation="58.5" in="SourceAlpha" result="shadowBlurInner1"></feGaussianBlur>
            <feOffset dx="0" dy="16" in="shadowBlurInner1" result="shadowOffsetInner1"></feOffset>
            <feComposite in="shadowOffsetInner1" in2="SourceAlpha" operator="arithmetic" k2="-1" k3="1"
                         result="shadowInnerInner1"></feComposite>
            <feColorMatrix values="0 0 0 0 0   0 0 0 0 0   0 0 0 0 0  0 0 0 0.0776059878 0" type="matrix"
                           in="shadowInnerInner1"></feColorMatrix>
        </filter>
        <circle id="path-5ryfr2l9_2-4" cx="143.5" cy="145.5" r="130.5"></circle>
        <filter x="-8.4%" y="-9.2%" width="116.9%" height="119.5%" filterUnits="objectBoundingBox"
                id="filter-5ryfr2l9_2-5">
            <feOffset dx="0" dy="5" in="SourceAlpha" result="shadowOffsetOuter1"></feOffset>
            <feGaussianBlur stdDeviation="6.5" in="shadowOffsetOuter1" result="shadowBlurOuter1"></feGaussianBlur>
            <feColorMatrix values="0 0 0 0 0.859516531   0 0 0 0 0.859516531   0 0 0 0 0.859516531  0 0 0 1 0"
                           type="matrix" in="shadowBlurOuter1" result="shadowMatrixOuter1"></feColorMatrix>
            <feOffset dx="0" dy="-5" in="SourceAlpha" result="shadowOffsetOuter2"></feOffset>
            <feGaussianBlur stdDeviation="5" in="shadowOffsetOuter2" result="shadowBlurOuter2"></feGaussianBlur>
            <feColorMatrix values="0 0 0 0 1   0 0 0 0 1   0 0 0 0 1  0 0 0 1 0" type="matrix" in="shadowBlurOuter2"
                           result="shadowMatrixOuter2"></feColorMatrix>
            <feMerge>
                <feMergeNode in="shadowMatrixOuter1"></feMergeNode>
                <feMergeNode in="shadowMatrixOuter2"></feMergeNode>
            </feMerge>
        </filter>
        <filter x="-30.5%" y="-31.2%" width="160.9%" height="163.6%" filterUnits="objectBoundingBox"
                id="filter-5ryfr2l9_2-6">
            <feGaussianBlur stdDeviation="58.5" in="SourceAlpha" result="shadowBlurInner1"></feGaussianBlur>
            <feOffset dx="0" dy="16" in="shadowBlurInner1" result="shadowOffsetInner1"></feOffset>
            <feComposite in="shadowOffsetInner1" in2="SourceAlpha" operator="arithmetic" k2="-1" k3="1"
                         result="shadowInnerInner1"></feComposite>
            <feColorMatrix values="0 0 0 0 0   0 0 0 0 0   0 0 0 0 0  0 0 0 0.0776059878 0" type="matrix"
                           in="shadowInnerInner1"></feColorMatrix>
        </filter>
    </defs>
    <g id="Page-1" stroke="none" stroke-width="1" fill="none" fill-rule="evenodd">
        <g id="Rectangle-Copy-2">
            <use fill="black" fill-opacity="1" filter="url(#filter-5ryfr2l9_2-2)" xlink:href="#path-5ryfr2l9_2-1"></use>
            <use fill-opacity="0.15" fill="#000000" fill-rule="evenodd" xlink:href="#path-5ryfr2l9_2-1"></use>
            <use fill="black" fill-opacity="1" filter="url(#filter-5ryfr2l9_2-3)" xlink:href="#path-5ryfr2l9_2-1"></use>
        </g>
        <g id="Oval-Copy-2">
            <use fill="black" fill-opacity="1" filter="url(#filter-5ryfr2l9_2-5)" xlink:href="#path-5ryfr2l9_2-4"></use>
            <use fill="#FFFDFD" fill-rule="evenodd" xlink:href="#path-5ryfr2l9_2-4"></use>
            <use fill="black" fill-opacity="1" filter="url(#filter-5ryfr2l9_2-6)" xlink:href="#path-5ryfr2l9_2-4"></use>
        </g>
        <g>
            <g id="Group" transform="translate(65, 66.4478)">
                <g id="color" transform="translate(0, 1.8001)" fill-rule="nonzero">
                    <circle id="Oval" fill="#FCEA2B" cx="78.2376325" cy="78.2376325" r="78.2376325"></circle>
                    <circle id="Oval" fill="#FFFFFF" cx="78.2376325" cy="117.824245" r="11.0973562"></circle>
                </g>
                <g id="line" transform="translate(3.2599, 0)">
                    <path d="M103.564784,10.7022561 C102.365792,10.2074031 101.150827,9.74254119 99.9215184,9.30897431 C92.1182925,6.55696559 83.7227425,5.06001888 74.9777312,5.06001888 C33.5668783,5.06001888 0,38.6268971 0,80.0377501 C0,121.445669 33.5668783,155.015481 74.9777312,155.015481 C116.38565,155.015481 149.955462,121.445669 149.955462,80.0377501 C149.955462,70.8330926 148.296825,62.0157114 145.262182,53.8685659"
                          id="Path" stroke="#000000" stroke-width="2" stroke-linecap="round"
                          stroke-linejoin="round"></path>
                    <circle id="Oval" stroke="#000000" stroke-width="2" stroke-linecap="round" stroke-linejoin="round"
                            cx="74.9777312" cy="119.624362" r="11.0973562"></circle>
                    <path d="M121.154886,69.7993779 C110.802091,77.4392827 96.8480834,76.5180346 88.5558723,69.7993779"
                          id="Path" stroke="#000000" stroke-width="2" stroke-linecap="round"
                          stroke-linejoin="round"></path>
                    <path d="M61.39959,69.7993779 C51.0467953,77.4392827 37.0927876,76.5180346 28.8005765,69.7993779"
                          id="Path" stroke="#000000" stroke-width="2" stroke-linecap="round"
                          stroke-linejoin="round"></path>
                    <path d="M103.908704,41.0030392 L95.3801498,41.0030392 C94.2183209,41.0030392 93.1454874,40.383984 92.5596831,39.3796084 C91.9771388,38.3736028 91.9738789,37.1351663 92.5502294,36.1262268 L98.2899377,26.0792108 L95.3801498,26.0792108 C93.5784023,26.0792108 92.1202484,24.619427 92.1202484,22.8193095 C92.1202484,21.019192 93.5784023,19.5594081 95.3801498,19.5594081 L103.908704,19.5594081 C105.070533,19.5594081 106.143366,20.1784634 106.72917,21.182839 C107.311715,22.1888446 107.314975,23.4272811 106.738624,24.4362206 L100.998916,34.4832365 L103.908704,34.4832365 C105.710451,34.4832365 107.168605,35.9430204 107.168605,37.7431379 C107.168605,39.5432554 105.710451,41.0030392 103.908704,41.0030392 Z"
                          id="Path" fill="#000000" fill-rule="nonzero"></path>
                    <path d="M123.936234,27.9634338 L111.679657,27.9634338 C110.517828,27.9634338 109.444994,27.3443786 108.85919,26.340003 C108.276646,25.3339974 108.273386,24.0955609 108.849736,23.0866214 L118.317468,6.51980271 L111.679983,6.51980271 C109.878235,6.51980271 108.420081,5.06001888 108.420081,3.25990136 C108.420081,1.45978383 109.878235,0 111.679983,0 L123.93656,0 C125.098389,0 126.171222,0.619055267 126.757026,1.62343087 C127.339571,2.62943643 127.342831,3.86787296 126.76648,4.87681243 L117.298423,21.4436311 L123.935908,21.4436311 C125.737655,21.4436311 127.195809,22.9034149 127.195809,24.7035325 C127.195809,26.50365 125.737981,27.9634338 123.936234,27.9634338 Z"
                          id="Path" fill="#000000" fill-rule="nonzero"></path>
                    <path d="M150.47998,44.2629406 L134.498966,44.2629406 C133.337137,44.2629406 132.264304,43.6438853 131.678499,42.6395097 C131.095955,41.6335042 131.092695,40.3950676 131.669046,39.3861282 L144.86154,16.2995068 L134.499292,16.2995068 C132.697545,16.2995068 131.239174,14.8397229 131.239174,13.0396054 C131.239174,11.2394879 132.697545,9.77970407 134.499292,9.77970407 L150.480306,9.77970407 C151.642135,9.77970407 152.714969,10.3987593 153.300773,11.4031349 C153.883317,12.4091405 153.886577,13.647577 153.310227,14.6565165 L140.117732,37.7431379 L150.47998,37.7431379 C152.281728,37.7431379 153.740099,39.2029217 153.740099,41.0030392 C153.740099,42.8031568 152.282054,44.2629406 150.47998,44.2629406 Z"
                          id="Path" fill="#000000" fill-rule="nonzero"></path>
                </g>
                <g id="color-foreground" transform="translate(95.3801, 0)" fill="#61B2E4" fill-rule="nonzero"
                   stroke="#61B2E4" stroke-width="0.1">
                    <path d="M11.7884553,41.0030392 L3.25990136,41.0030392 C2.09807251,41.0030392 1.02523898,40.383984 0.439434703,39.3796084 C-0.143109669,38.3736028 -0.146369571,37.1351663 0.429980989,36.1262268 L6.1696893,26.0792108 L3.25990136,26.0792108 C1.45815388,26.0792108 0,24.619427 0,22.8193095 C0,21.019192 1.45815388,19.5594081 3.25990136,19.5594081 L11.7884553,19.5594081 C12.9502841,19.5594081 14.0231177,20.1784634 14.6089219,21.182839 C15.1914663,22.1888446 15.1947262,23.4272811 14.6183756,24.4362206 L8.87866733,34.4832365 L11.7884553,34.4832365 C13.5902028,34.4832365 15.0483566,35.9430204 15.0483566,37.7431379 C15.0483566,39.5432554 13.5902028,41.0030392 11.7884553,41.0030392 Z"
                          id="Path"></path>
                    <path d="M31.8159852,27.9634338 L19.5594081,27.9634338 C18.3975793,27.9634338 17.3247458,27.3443786 16.7389415,26.340003 C16.1563971,25.3339974 16.1531372,24.0955609 16.7294878,23.0866214 L26.1972193,6.51980271 L19.5597341,6.51980271 C17.7579866,6.51980271 16.2998328,5.06001888 16.2998328,3.25990136 C16.2998328,1.45978383 17.7579866,0 19.5597341,0 L31.8163112,0 C32.9781401,0 34.0509736,0.619055267 34.6367779,1.62343087 C35.2193223,2.62943643 35.2225822,3.86787296 34.6462316,4.87681243 L25.1781741,21.4436311 L31.8156593,21.4436311 C33.6174067,21.4436311 35.0755606,22.9034149 35.0755606,24.7035325 C35.0755606,26.50365 33.6177327,27.9634338 31.8159852,27.9634338 Z"
                          id="Path"></path>
                    <path d="M58.359732,44.2629406 L42.3787176,44.2629406 C41.2168888,44.2629406 40.1440552,43.6438853 39.558251,42.6395097 C38.9757066,41.6335042 38.9724467,40.3950676 39.5487973,39.3861282 L52.741292,16.2995068 L42.3790436,16.2995068 C40.5772961,16.2995068 39.1189254,14.8397229 39.1189254,13.0396054 C39.1189254,11.2394879 40.5772961,9.77970407 42.3790436,9.77970407 L58.360058,9.77970407 C59.5218869,9.77970407 60.5947204,10.3987593 61.1805247,11.4031349 C61.763069,12.4091405 61.7663289,13.647577 61.1899784,14.6565165 L47.9974836,37.7431379 L58.359732,37.7431379 C60.1614795,37.7431379 61.6198502,39.2029217 61.6198502,41.0030392 C61.6198502,42.8031568 60.1618055,44.2629406 58.359732,44.2629406 Z"
                          id="Path"></path>
                </g>

            </g>
            <animateTransform id="animate"
                              attributeName="transform"
                              attributeType="XML"
                              type="rotate"
                              from="0 143.5 145.5"
                              to="360 143.5 145.5"
                              dur="2s"
                              repeatCount="indefinite"/>

        </g>
        <text id="my-text"></text>
    </g>
</svg>
