<svg version="1.1" id="Layer_1" xmlns="http://www.w3.org/2000/svg" xmlns:xlink="http://www.w3.org/1999/xlink" x="0px" y="0px"
     width="100%" viewBox="0 0 512 512" enable-background="new 0 0 512 512" xml:space="preserve">
<path fill="#010000" opacity="1.000000" stroke="none"
      d="
M1.000000,195.000000
	C1.000000,130.000000 1.000000,65.500000 1.000000,1.000000
	C171.666672,1.000000 342.333344,1.000000 513.000000,1.000000
	C513.000000,171.666672 513.000000,342.333344 513.000000,513.000000
	C342.333344,513.000000 171.666672,513.000000 1.000000,513.000000
	C1.000000,407.166656 1.000000,301.333344 1.000000,195.000000
M155.750488,137.613922
	C160.973053,137.965714 166.195602,138.317505 171.561340,138.678955
	C173.717667,101.759315 186.401993,70.601715 216.618057,48.465847
	C211.507187,32.119595 195.753174,19.749054 177.987808,18.302265
	C158.566040,17.507349 142.238281,24.503529 128.522263,38.007698
	C122.363762,44.071064 118.535477,44.169132 112.545708,38.112888
	C104.169846,29.644079 94.309952,23.693958 82.828529,20.525049
	C64.298271,15.410638 47.449356,17.449480 33.998188,32.644958
	C26.671473,40.921780 22.330303,50.750698 19.931818,61.485157
	C15.530016,81.185493 19.748775,99.887650 27.041941,118.030891
	C36.159092,140.711670 51.171993,158.741806 72.724213,173.221954
	C73.760475,171.658890 74.555885,169.907471 75.826950,168.628906
	C86.296715,158.097382 98.543152,150.292587 112.342125,144.795135
	C126.014877,139.347977 140.283279,137.599686 155.750488,137.613922
M436.176331,53.851753
	C431.568512,53.283379 426.946198,52.128918 422.355286,52.242634
	C394.508636,52.932411 370.494385,62.933678 350.608459,82.573296
	C344.147461,88.954277 340.522247,89.013298 334.186951,82.688995
	C319.656586,68.183823 302.349030,58.747139 282.300385,54.450130
	C261.261017,49.940769 241.014099,51.188354 223.375610,64.965714
	C199.281448,83.785583 189.970367,109.713547 188.836609,139.350342
	C188.715805,142.508514 190.743698,142.641876 192.869690,143.241989
	C215.640533,149.669571 236.050491,160.514389 253.953857,176.026352
	C254.925400,176.868134 256.016693,177.571701 257.073914,178.355682
	C257.833862,177.813568 258.402679,177.476746 258.891907,177.048889
	C284.084076,155.015778 313.328186,142.173523 346.567474,138.417160
	C377.771515,134.890839 406.090973,141.694855 430.701660,161.884552
	C445.122284,173.714722 455.877838,188.364029 464.355591,205.609940
	C466.673187,210.994247 468.990784,216.378555 471.460968,222.117325
	C472.202759,221.180161 472.674164,220.710327 472.999939,220.155060
	C490.037292,191.118362 498.879456,160.058670 494.793976,126.242043
	C492.212738,104.876328 483.825623,85.860001 468.019562,70.764099
	C459.262421,62.400433 449.280914,55.949905 436.176331,53.851753
M281.584656,486.975800
	C282.102264,486.671906 282.619904,486.367981 283.544922,486.006866
	C283.544922,486.006866 283.909241,485.815735 284.660095,485.867554
	C291.725677,482.935638 298.886688,480.212738 305.841370,477.037903
	C350.940826,456.449677 390.495697,428.528748 420.146851,388.211914
	C448.948090,349.050629 465.343170,305.672272 460.901459,256.242950
	C458.269714,226.955002 447.191498,201.124405 425.824524,180.382950
	C414.820282,169.700882 402.170013,161.570801 386.196106,157.879974
	C381.146515,156.911438 376.128754,155.337769 371.042267,155.070038
	C330.094879,152.914642 294.905273,166.391846 265.290527,194.642715
	C258.787506,200.846252 255.160049,200.896301 248.725830,194.647949
	C238.006943,184.238708 226.014496,175.635788 212.582550,169.090439
	C189.307953,157.748795 164.702850,152.237762 138.964722,155.491333
	C108.656258,159.322632 86.474464,176.389999 70.900932,202.036423
	C50.663364,235.363586 48.169479,271.417755 56.592972,308.616241
	C67.021523,354.669098 91.680954,392.369843 126.187881,423.913696
	C163.252640,457.795715 207.064377,479.631073 254.550980,494.687866
	C256.035583,495.158600 257.940002,495.209503 259.395874,494.713745
	C266.630249,492.250244 273.779755,489.537598 281.584656,486.975800
z"/>
    <path fill="#EF314C" opacity="1.000000" stroke="none"
          d="
M283.909241,485.815735
	C283.909241,485.815735 283.544922,486.006866 283.036926,486.028381
	C282.005676,486.337463 281.482422,486.625061 280.959167,486.912659
	C273.779755,489.537598 266.630249,492.250244 259.395874,494.713745
	C257.940002,495.209503 256.035583,495.158600 254.550980,494.687866
	C207.064377,479.631073 163.252640,457.795715 126.187881,423.913696
	C91.680954,392.369843 67.021523,354.669098 56.592972,308.616241
	C48.169479,271.417755 50.663364,235.363586 70.900932,202.036423
	C86.474464,176.389999 108.656258,159.322632 138.964722,155.491333
	C164.702850,152.237762 189.307953,157.748795 212.582550,169.090439
	C226.014496,175.635788 238.006943,184.238708 248.725830,194.647949
	C255.160049,200.896301 258.787506,200.846252 265.290527,194.642715
	C294.905273,166.391846 330.094879,152.914642 371.042267,155.070038
	C376.128754,155.337769 381.146515,156.911438 386.696655,158.331177
	C388.371216,159.692032 389.490387,160.685196 390.727936,161.498138
	C400.989960,168.239243 409.893005,176.438614 417.231781,186.286987
	C441.972961,219.488785 448.899902,256.975067 442.563141,297.096252
	C435.269135,343.278229 413.840973,382.618805 382.016846,416.499908
	C355.537079,444.691315 324.001160,465.800232 289.249939,482.373932
	C287.353851,483.278229 285.684265,484.657532 283.909241,485.815735
M123.947594,371.533600
	C101.395660,342.126129 87.279808,309.538971 86.264481,271.966034
	C86.101570,265.937500 82.647820,262.368683 77.619408,262.475067
	C72.443161,262.584595 68.916687,266.585236 69.298203,272.789764
	C69.797997,280.917938 70.264687,289.111389 71.688675,297.108856
	C78.994621,338.140717 99.253654,372.324707 127.940727,401.926056
	C132.031189,406.146851 137.146332,406.493500 140.740738,403.013184
	C144.315323,399.552002 144.091064,394.560730 140.186295,390.121216
	C134.909210,384.121490 129.646698,378.108948 123.947594,371.533600
M150.871201,188.747406
	C156.702835,187.017242 159.501862,183.582672 158.790970,179.029404
	C158.045975,174.257767 154.418198,171.553482 148.511230,171.845322
	C121.756104,173.167145 101.398346,185.453110 87.198814,208.041580
	C83.573647,213.808472 84.325699,218.674438 88.934792,221.554108
	C93.438667,224.368042 98.120369,222.663605 101.736534,216.961838
	C112.970573,199.248642 128.995316,189.738632 150.871201,188.747406
z"/>
    <path fill="#EE314C" opacity="1.000000" stroke="none"
          d="
M464.201202,204.923050
	C455.877838,188.364029 445.122284,173.714722 430.701660,161.884552
	C406.090973,141.694855 377.771515,134.890839 346.567474,138.417160
	C313.328186,142.173523 284.084076,155.015778 258.891907,177.048889
	C258.402679,177.476746 257.833862,177.813568 257.073914,178.355682
	C256.016693,177.571701 254.925400,176.868134 253.953857,176.026352
	C236.050491,160.514389 215.640533,149.669571 192.869690,143.241989
	C190.743698,142.641876 188.715805,142.508514 188.836609,139.350342
	C189.970367,109.713547 199.281448,83.785583 223.375610,64.965714
	C241.014099,51.188354 261.261017,49.940769 282.300385,54.450130
	C302.349030,58.747139 319.656586,68.183823 334.186951,82.688995
	C340.522247,89.013298 344.147461,88.954277 350.608459,82.573296
	C370.494385,62.933678 394.508636,52.932411 422.355286,52.242634
	C426.946198,52.128918 431.568512,53.283379 436.674133,54.310982
	C438.259064,55.785027 439.271179,56.897381 440.444794,57.799751
	C453.951752,68.184921 463.795410,81.312332 470.239380,97.075356
	C480.365173,121.844597 481.202454,147.304565 475.043396,172.956955
	C472.427521,183.851990 467.874084,194.281799 464.201202,204.923050
M209.113342,118.311043
	C209.772690,123.283936 212.529831,126.319473 217.593414,126.426529
	C222.447495,126.529160 225.022583,123.538727 226.267563,119.004799
	C229.614075,106.817688 236.613052,97.274338 247.017609,90.037064
	C249.142609,88.558945 251.525894,85.802803 251.647034,83.521965
	C251.789795,80.833778 250.257004,77.341469 248.268219,75.424820
	C245.371490,72.633186 241.495514,73.366997 238.132401,75.589302
	C222.855515,85.684074 213.037933,99.557144 209.113342,118.311043
z"/>
    <path fill="#EE314C" opacity="1.000000" stroke="none"
          d="
M154.839508,137.349350
	C140.283279,137.599686 126.014877,139.347977 112.342125,144.795135
	C98.543152,150.292587 86.296715,158.097382 75.826950,168.628906
	C74.555885,169.907471 73.760475,171.658890 72.724213,173.221954
	C51.171993,158.741806 36.159092,140.711670 27.041941,118.030891
	C19.748775,99.887650 15.530016,81.185493 19.931818,61.485157
	C22.330303,50.750698 26.671473,40.921780 33.998188,32.644958
	C47.449356,17.449480 64.298271,15.410638 82.828529,20.525049
	C94.309952,23.693958 104.169846,29.644079 112.545708,38.112888
	C118.535477,44.169132 122.363762,44.071064 128.522263,38.007698
	C142.238281,24.503529 158.566040,17.507349 178.577545,18.712967
	C188.385971,26.746014 196.183395,35.416355 200.209335,46.988823
	C201.422974,50.477360 200.914917,52.751553 197.523529,54.884327
	C193.195297,57.606258 188.987823,60.724987 185.348297,64.303299
	C164.970734,84.338196 155.967209,109.222763 154.839508,137.349350
M73.049522,128.782364
	C67.625832,119.522194 62.030365,110.356766 56.849693,100.962578
	C54.191219,96.141930 50.085339,93.764862 45.576954,95.471382
	C40.871666,97.252419 38.422714,102.289070 41.061390,107.344032
	C46.328537,117.434402 52.182213,127.232765 58.122662,136.950607
	C60.529533,140.887955 64.492683,142.213394 68.981720,140.306564
	C73.092926,138.560242 74.477570,134.941757 73.049522,128.782364
M38.431396,58.021824
	C37.625473,61.242897 36.519325,64.423904 36.082863,67.694283
	C35.400879,72.804321 38.346657,76.780609 42.979847,77.679504
	C47.416733,78.540321 51.248451,75.379005 52.963337,70.597351
	C54.952240,65.051651 57.358734,59.594421 60.188034,54.429707
	C62.706078,49.833179 62.618008,45.320213 58.935619,42.330627
	C55.125694,39.237488 49.916847,39.685040 46.655678,44.110443
	C43.627510,48.219669 41.363621,52.892109 38.431396,58.021824
z"/>
    <path fill="#B9193A" opacity="1.000000" stroke="none"
          d="
M284.284668,485.841644
	C285.684265,484.657532 287.353851,483.278229 289.249939,482.373932
	C324.001160,465.800232 355.537079,444.691315 382.016846,416.499908
	C413.840973,382.618805 435.269135,343.278229 442.563141,297.096252
	C448.899902,256.975067 441.972961,219.488785 417.231781,186.286987
	C409.893005,176.438614 400.989960,168.239243 390.727936,161.498138
	C389.490387,160.685196 388.371216,159.692032 387.053253,158.485107
	C402.170013,161.570801 414.820282,169.700882 425.824524,180.382950
	C447.191498,201.124405 458.269714,226.955002 460.901459,256.242950
	C465.343170,305.672272 448.948090,349.050629 420.146851,388.211914
	C390.495697,428.528748 350.940826,456.449677 305.841370,477.037903
	C298.886688,480.212738 291.725677,482.935638 284.284668,485.841644
z"/>
    <path fill="#B9193A" opacity="1.000000" stroke="none"
          d="
M464.278381,205.266495
	C467.874084,194.281799 472.427521,183.851990 475.043396,172.956955
	C481.202454,147.304565 480.365173,121.844597 470.239380,97.075356
	C463.795410,81.312332 453.951752,68.184921 440.444794,57.799751
	C439.271179,56.897381 438.259064,55.785027 437.043640,54.465881
	C449.280914,55.949905 459.262421,62.400433 468.019562,70.764099
	C483.825623,85.860001 492.212738,104.876328 494.793976,126.242043
	C498.879456,160.058670 490.037292,191.118362 472.999939,220.155060
	C472.674164,220.710327 472.202759,221.180161 471.460968,222.117325
	C468.990784,216.378555 466.673187,210.994247 464.278381,205.266495
z"/>
    <path fill="#B9193A" opacity="1.000000" stroke="none"
          d="
M155.294998,137.481628
	C155.967209,109.222763 164.970734,84.338196 185.348297,64.303299
	C188.987823,60.724987 193.195297,57.606258 197.523529,54.884327
	C200.914917,52.751553 201.422974,50.477360 200.209335,46.988823
	C196.183395,35.416355 188.385971,26.746014 179.004822,18.860218
	C195.753174,19.749054 211.507187,32.119595 216.618057,48.465847
	C186.401993,70.601715 173.717667,101.759315 171.561340,138.678955
	C166.195602,138.317505 160.973053,137.965714 155.294998,137.481628
z"/>
    <path fill="#B9193A" opacity="1.000000" stroke="none"
          d="
M281.271912,486.944214
	C281.482422,486.625061 282.005676,486.337463 282.833252,486.056946
	C282.619904,486.367981 282.102264,486.671906 281.271912,486.944214
z"/>
    <path fill="#F5F2F2" opacity="1.000000" stroke="none"
          d="
M124.162766,371.817749
	C129.646698,378.108948 134.909210,384.121490 140.186295,390.121216
	C144.091064,394.560730 144.315323,399.552002 140.740738,403.013184
	C137.146332,406.493500 132.031189,406.146851 127.940727,401.926056
	C99.253654,372.324707 78.994621,338.140717 71.688675,297.108856
	C70.264687,289.111389 69.797997,280.917938 69.298203,272.789764
	C68.916687,266.585236 72.443161,262.584595 77.619408,262.475067
	C82.647820,262.368683 86.101570,265.937500 86.264481,271.966034
	C87.279808,309.538971 101.395660,342.126129 124.162766,371.817749
z"/>
    <path fill="#F5F2F2" opacity="1.000000" stroke="none"
          d="
M150.447983,188.788010
	C128.995316,189.738632 112.970573,199.248642 101.736534,216.961838
	C98.120369,222.663605 93.438667,224.368042 88.934792,221.554108
	C84.325699,218.674438 83.573647,213.808472 87.198814,208.041580
	C101.398346,185.453110 121.756104,173.167145 148.511230,171.845322
	C154.418198,171.553482 158.045975,174.257767 158.790970,179.029404
	C159.501862,183.582672 156.702835,187.017242 150.447983,188.788010
z"/>
    <path fill="#F5F2F2" opacity="1.000000" stroke="none"
          d="
M209.116394,117.911804
	C213.037933,99.557144 222.855515,85.684074 238.132401,75.589302
	C241.495514,73.366997 245.371490,72.633186 248.268219,75.424820
	C250.257004,77.341469 251.789795,80.833778 251.647034,83.521965
	C251.525894,85.802803 249.142609,88.558945 247.017609,90.037064
	C236.613052,97.274338 229.614075,106.817688 226.267563,119.004799
	C225.022583,123.538727 222.447495,126.529160 217.593414,126.426529
	C212.529831,126.319473 209.772690,123.283936 209.116394,117.911804
z"/>
    <path fill="#F5F1F2" opacity="1.000000" stroke="none"
          d="
M73.207962,129.136902
	C74.477570,134.941757 73.092926,138.560242 68.981720,140.306564
	C64.492683,142.213394 60.529533,140.887955 58.122662,136.950607
	C52.182213,127.232765 46.328537,117.434402 41.061390,107.344032
	C38.422714,102.289070 40.871666,97.252419 45.576954,95.471382
	C50.085339,93.764862 54.191219,96.141930 56.849693,100.962578
	C62.030365,110.356766 67.625832,119.522194 73.207962,129.136902
z"/>
    <path fill="#F5F1F2" opacity="1.000000" stroke="none"
          d="
M38.597313,57.669197
	C41.363621,52.892109 43.627510,48.219669 46.655678,44.110443
	C49.916847,39.685040 55.125694,39.237488 58.935619,42.330627
	C62.618008,45.320213 62.706078,49.833179 60.188034,54.429707
	C57.358734,59.594421 54.952240,65.051651 52.963337,70.597351
	C51.248451,75.379005 47.416733,78.540321 42.979847,77.679504
	C38.346657,76.780609 35.400879,72.804321 36.082863,67.694283
	C36.519325,64.423904 37.625473,61.242897 38.597313,57.669197
z"/>
    <text x="300" y="400" font-size="200pt" text-anchor="middle">{count}</text>
</svg>

